<?xml version="1.0" encoding="UTF-8"?>
<svg xmlns="http://www.w3.org/2000/svg" xmlns:xlink="http://www.w3.org/1999/xlink" width="375pt" height="374.999991pt" viewBox="0 0 375 374.999991" version="1.2">
<defs>
<clipPath id="clip1">
  <path d="M 126.921875 95.160156 L 248.421875 95.160156 L 248.421875 218.910156 L 126.921875 218.910156 Z M 126.921875 95.160156 "/>
</clipPath>
</defs>
<g id="surface1">
<g clip-path="url(#clip1)" clip-rule="nonzero">
<path style=" stroke:none;fill-rule:nonzero;fill:rgb(0%,0%,0%);fill-opacity:1;" d="M 187.671875 95.71875 C 185.851562 95.722656 184.039062 95.804688 182.230469 95.964844 C 180.421875 96.128906 178.621094 96.371094 176.832031 96.691406 C 175.042969 97.015625 173.273438 97.414062 171.519531 97.890625 C 169.765625 98.371094 168.039062 98.925781 166.335938 99.554688 C 164.632812 100.1875 162.960938 100.890625 161.316406 101.667969 C 159.675781 102.449219 158.074219 103.296875 156.507812 104.21875 C 154.941406 105.136719 153.417969 106.125 151.941406 107.179688 C 150.464844 108.234375 149.035156 109.351562 147.65625 110.535156 C 146.277344 111.714844 144.953125 112.953125 143.683594 114.253906 C 142.417969 115.550781 141.207031 116.902344 140.058594 118.308594 C 138.910156 119.710938 137.824219 121.164062 136.804688 122.664062 C 135.785156 124.164062 134.835938 125.707031 133.953125 127.292969 C 133.070312 128.878906 132.257812 130.5 131.519531 132.15625 C 130.78125 133.8125 130.117188 135.496094 129.527344 137.210938 C 128.9375 138.925781 128.425781 140.664062 127.988281 142.425781 C 127.554688 144.183594 127.199219 145.960938 126.921875 147.753906 L 131.792969 147.753906 C 132.066406 146.117188 132.410156 144.5 132.824219 142.894531 C 133.238281 141.289062 133.722656 139.707031 134.277344 138.144531 C 134.832031 136.585938 135.453125 135.050781 136.140625 133.542969 C 136.832031 132.035156 137.585938 130.5625 138.40625 129.121094 C 139.226562 127.679688 140.105469 126.277344 141.050781 124.914062 C 141.992188 123.550781 142.992188 122.230469 144.054688 120.953125 C 145.113281 119.679688 146.226562 118.453125 147.394531 117.273438 C 148.5625 116.09375 149.777344 114.972656 151.042969 113.898438 C 152.3125 112.828125 153.621094 111.816406 154.980469 110.859375 C 156.335938 109.902344 157.730469 109.007812 159.164062 108.171875 C 160.601562 107.339844 162.070312 106.570312 163.570312 105.867188 C 165.074219 105.160156 166.605469 104.523438 168.164062 103.953125 C 169.722656 103.382812 171.304688 102.878906 172.90625 102.449219 C 174.511719 102.015625 176.128906 101.65625 177.765625 101.367188 C 179.398438 101.078125 181.042969 100.859375 182.699219 100.714844 C 184.351562 100.566406 186.011719 100.496094 187.671875 100.496094 C 189.332031 100.496094 190.988281 100.566406 192.644531 100.714844 C 194.296875 100.859375 195.941406 101.078125 197.578125 101.367188 C 199.210938 101.65625 200.832031 102.015625 202.433594 102.449219 C 204.035156 102.878906 205.617188 103.382812 207.175781 103.953125 C 208.734375 104.523438 210.265625 105.160156 211.769531 105.867188 C 213.273438 106.570312 214.742188 107.339844 216.175781 108.171875 C 217.609375 109.007812 219.007812 109.902344 220.363281 110.859375 C 221.71875 111.816406 223.03125 112.828125 224.296875 113.898438 C 225.5625 114.972656 226.78125 116.09375 227.949219 117.273438 C 229.117188 118.453125 230.230469 119.679688 231.289062 120.953125 C 232.347656 122.230469 233.347656 123.550781 234.292969 124.914062 C 235.234375 126.277344 236.117188 127.679688 236.9375 129.121094 C 237.753906 130.5625 238.507812 132.035156 239.199219 133.542969 C 239.886719 135.050781 240.511719 136.585938 241.0625 138.144531 C 241.617188 139.707031 242.101562 141.289062 242.515625 142.894531 C 242.933594 144.5 243.273438 146.117188 243.546875 147.753906 L 248.445312 147.753906 C 248.167969 145.960938 247.8125 144.183594 247.375 142.421875 C 246.941406 140.664062 246.429688 138.925781 245.839844 137.207031 C 245.25 135.492188 244.585938 133.808594 243.847656 132.152344 C 243.105469 130.492188 242.296875 128.871094 241.410156 127.289062 C 240.527344 125.703125 239.578125 124.160156 238.554688 122.660156 C 237.535156 121.15625 236.453125 119.703125 235.300781 118.300781 C 234.152344 116.894531 232.941406 115.542969 231.671875 114.246094 C 230.40625 112.945312 229.078125 111.707031 227.699219 110.527344 C 226.320312 109.34375 224.890625 108.226562 223.414062 107.171875 C 221.933594 106.117188 220.410156 105.128906 218.84375 104.210938 C 217.277344 103.289062 215.675781 102.441406 214.03125 101.664062 C 212.390625 100.882812 210.71875 100.179688 209.011719 99.550781 C 207.308594 98.917969 205.582031 98.363281 203.828125 97.886719 C 202.074219 97.410156 200.300781 97.011719 198.511719 96.6875 C 196.722656 96.367188 194.921875 96.125 193.113281 95.964844 C 191.300781 95.800781 189.488281 95.71875 187.671875 95.71875 Z M 187.671875 213.5625 C 185.625 213.5625 183.589844 213.449219 181.554688 213.230469 C 179.523438 213.007812 177.511719 212.679688 175.515625 212.242188 C 173.519531 211.804688 171.550781 211.257812 169.613281 210.605469 C 167.675781 209.957031 165.78125 209.203125 163.925781 208.34375 C 162.070312 207.488281 160.269531 206.535156 158.515625 205.484375 C 156.765625 204.429688 155.078125 203.289062 153.449219 202.054688 C 151.824219 200.820312 150.265625 199.5 148.785156 198.097656 C 147.300781 196.695312 145.894531 195.21875 144.574219 193.664062 L 138.421875 193.664062 C 139.132812 194.617188 139.871094 195.546875 140.636719 196.457031 C 141.402344 197.367188 142.191406 198.257812 143.011719 199.121094 C 143.828125 199.984375 144.667969 200.824219 145.535156 201.640625 C 146.402344 202.457031 147.292969 203.246094 148.203125 204.011719 C 149.117188 204.773438 150.050781 205.511719 151.003906 206.222656 C 151.960938 206.929688 152.933594 207.613281 153.929688 208.265625 C 154.925781 208.917969 155.9375 209.542969 156.96875 210.136719 C 158 210.730469 159.050781 211.292969 160.113281 211.828125 C 161.179688 212.359375 162.257812 212.863281 163.351562 213.332031 C 164.445312 213.804688 165.550781 214.242188 166.671875 214.648438 C 167.789062 215.054688 168.917969 215.429688 170.058594 215.769531 C 171.203125 216.113281 172.351562 216.417969 173.511719 216.695312 C 174.667969 216.96875 175.835938 217.207031 177.007812 217.414062 C 178.179688 217.621094 179.359375 217.792969 180.542969 217.929688 C 181.726562 218.070312 182.910156 218.171875 184.101562 218.242188 C 185.289062 218.308594 186.480469 218.34375 187.671875 218.34375 C 188.863281 218.34375 190.050781 218.308594 191.242188 218.242188 C 192.429688 218.171875 193.617188 218.070312 194.800781 217.929688 C 195.980469 217.792969 197.160156 217.621094 198.332031 217.414062 C 199.507812 217.207031 200.671875 216.96875 201.832031 216.695312 C 202.988281 216.417969 204.140625 216.113281 205.28125 215.769531 C 206.421875 215.429688 207.550781 215.054688 208.671875 214.648438 C 209.789062 214.242188 210.898438 213.804688 211.992188 213.332031 C 213.085938 212.863281 214.164062 212.359375 215.226562 211.828125 C 216.292969 211.292969 217.339844 210.730469 218.371094 210.136719 C 219.402344 209.542969 220.414062 208.917969 221.410156 208.265625 C 222.40625 207.613281 223.382812 206.929688 224.335938 206.222656 C 225.292969 205.511719 226.226562 204.773438 227.136719 204.011719 C 228.050781 203.246094 228.941406 202.457031 229.804688 201.640625 C 230.671875 200.824219 231.515625 199.984375 232.332031 199.121094 C 233.148438 198.257812 233.941406 197.367188 234.703125 196.457031 C 235.46875 195.546875 236.207031 194.617188 236.917969 193.664062 L 230.769531 193.664062 C 229.445312 195.21875 228.042969 196.695312 226.558594 198.097656 C 225.074219 199.5 223.519531 200.820312 221.890625 202.054688 C 220.265625 203.289062 218.574219 204.433594 216.824219 205.484375 C 215.070312 206.535156 213.269531 207.488281 211.414062 208.34375 C 209.558594 209.203125 207.664062 209.957031 205.726562 210.605469 C 203.789062 211.257812 201.824219 211.804688 199.828125 212.242188 C 197.832031 212.679688 195.816406 213.011719 193.785156 213.230469 C 191.753906 213.449219 189.714844 213.5625 187.671875 213.5625 Z M 187.671875 213.5625 "/>
</g>
<path style=" stroke:none;fill-rule:nonzero;fill:rgb(0%,0%,0%);fill-opacity:1;" d="M 247.792969 163.613281 C 247.679688 162.15625 247.371094 160.746094 246.863281 159.375 C 246.359375 158.003906 245.675781 156.726562 244.820312 155.542969 C 243.960938 154.359375 242.957031 153.3125 241.808594 152.40625 C 240.660156 151.5 239.410156 150.765625 238.058594 150.203125 C 237.066406 149.773438 236.050781 149.402344 235.015625 149.089844 C 231.644531 148.347656 228.265625 148.320312 224.878906 149.003906 C 224.542969 149.160156 224.1875 149.253906 223.816406 149.289062 C 216.8125 151.429688 212.226562 157.277344 212.675781 164.925781 C 212.839844 167.675781 214.53125 170.550781 218.492188 170.0625 C 219.152344 169.992188 219.78125 169.804688 220.375 169.503906 C 220.96875 169.203125 221.492188 168.808594 221.941406 168.320312 C 222.394531 167.832031 222.742188 167.277344 222.992188 166.660156 C 223.242188 166.042969 223.375 165.402344 223.390625 164.738281 C 223.273438 163.039062 222.667969 161.535156 221.574219 160.226562 C 221.097656 159.628906 220.679688 158.992188 220.320312 158.316406 C 220.117188 157.933594 219.980469 157.53125 219.914062 157.105469 C 219.851562 156.679688 219.859375 156.253906 219.941406 155.828125 C 220.023438 155.40625 220.175781 155.007812 220.394531 154.636719 C 220.613281 154.265625 220.890625 153.941406 221.222656 153.664062 C 224.316406 150.851562 230.90625 151.578125 230.90625 151.578125 C 233.664062 151.996094 236.054688 153.167969 238.074219 155.089844 C 242.179688 159.089844 242.996094 164.089844 242.179688 169.464844 C 241.832031 171.785156 241.058594 173.957031 239.855469 175.972656 C 238.65625 177.992188 237.117188 179.710938 235.242188 181.125 C 234.273438 181.9375 233.230469 182.644531 232.117188 183.246094 C 231 183.84375 229.835938 184.324219 228.625 184.6875 C 227.410156 185.050781 226.175781 185.285156 224.914062 185.394531 C 223.652344 185.503906 222.390625 185.484375 221.132812 185.339844 C 219.992188 185.199219 218.878906 184.949219 217.789062 184.582031 C 216.699219 184.214844 215.660156 183.742188 214.667969 183.164062 C 213.679688 182.585938 212.753906 181.910156 211.902344 181.140625 C 211.050781 180.375 210.285156 179.527344 209.609375 178.601562 C 207.757812 176.183594 206.347656 173.53125 205.382812 170.644531 C 204.417969 167.757812 203.945312 164.792969 203.96875 161.753906 C 204.019531 156.378906 204.851562 151.128906 206.476562 146.003906 C 206.636719 145.429688 206.914062 145.351562 207.402344 145.429688 C 210.171875 145.839844 212.953125 145.9375 215.746094 145.714844 C 218.914062 145.515625 221.996094 144.898438 224.992188 143.851562 C 225.425781 143.695312 225.820312 143.464844 226.171875 143.164062 C 226.464844 142.917969 226.660156 142.609375 226.753906 142.238281 C 226.851562 141.863281 226.832031 141.5 226.695312 141.140625 C 226.554688 140.785156 226.320312 140.503906 225.996094 140.304688 C 225.667969 140.101562 225.3125 140.019531 224.929688 140.054688 C 224.46875 140.050781 224.019531 140.117188 223.578125 140.253906 C 220.273438 141.417969 216.871094 141.988281 213.367188 141.964844 C 211.550781 141.964844 209.734375 141.804688 207.652344 141.703125 L 215.496094 122.292969 C 213.230469 122.605469 210.960938 122.953125 208.691406 123.230469 C 208.480469 123.226562 208.285156 123.285156 208.109375 123.40625 C 207.933594 123.527344 207.8125 123.691406 207.742188 123.890625 C 206.6875 126.453125 205.574219 128.992188 204.546875 131.554688 C 203.519531 134.117188 202.402344 137.027344 201.328125 139.839844 C 201.066406 139.769531 200.808594 139.675781 200.5625 139.566406 C 198.894531 138.640625 197.242188 137.703125 195.550781 136.792969 C 195.0625 136.515625 195 136.214844 195.210938 135.679688 C 196.652344 132.285156 197.519531 128.753906 197.820312 125.078125 C 198.074219 122.5 197.582031 120.070312 196.339844 117.792969 C 196.007812 117.171875 195.59375 116.609375 195.097656 116.109375 C 194.601562 115.609375 194.046875 115.1875 193.429688 114.851562 C 192.808594 114.511719 192.15625 114.265625 191.46875 114.117188 C 190.777344 113.964844 190.082031 113.917969 189.378906 113.96875 C 188.675781 114.023438 187.992188 114.171875 187.332031 114.421875 C 186.675781 114.671875 186.0625 115.011719 185.503906 115.4375 C 184.941406 115.867188 184.453125 116.363281 184.039062 116.933594 C 183.621094 117.5 183.296875 118.117188 183.058594 118.78125 C 182.632812 119.976562 182.417969 121.210938 182.417969 122.480469 C 182.417969 123.75 182.632812 124.984375 183.058594 126.179688 C 184.390625 130.324219 186.609375 133.921875 189.726562 136.964844 C 189.898438 137.097656 190.003906 137.269531 190.039062 137.484375 C 190.074219 137.699219 190.035156 137.898438 189.914062 138.078125 C 187.757812 142.367188 185.804688 146.726562 183.472656 150.964844 C 179.140625 159.476562 173.777344 167.28125 167.375 174.375 C 164.183594 177.957031 160.445312 180.832031 156.160156 183 C 154.097656 184.082031 151.902344 184.726562 149.578125 184.925781 C 147.25 185.128906 144.980469 184.875 142.757812 184.164062 C 141.953125 183.910156 141.171875 183.59375 140.417969 183.222656 C 139.660156 182.847656 138.9375 182.417969 138.25 181.933594 C 137.558594 181.449219 136.910156 180.914062 136.304688 180.328125 C 135.699219 179.746094 135.140625 179.117188 134.628906 178.445312 C 134.121094 177.777344 133.664062 177.070312 133.261719 176.332031 C 132.859375 175.589844 132.519531 174.824219 132.234375 174.03125 C 131.953125 173.238281 131.730469 172.429688 131.574219 171.601562 C 131.417969 170.777344 131.324219 169.941406 131.292969 169.101562 C 131.261719 168.027344 131.351562 166.960938 131.558594 165.90625 C 131.765625 164.851562 132.085938 163.832031 132.519531 162.847656 C 132.949219 161.863281 133.488281 160.9375 134.125 160.070312 C 134.765625 159.207031 135.492188 158.421875 136.304688 157.714844 C 137.054688 157.011719 137.878906 156.417969 138.785156 155.933594 C 139.691406 155.449219 140.644531 155.089844 141.648438 154.859375 C 142.648438 154.625 143.664062 154.527344 144.691406 154.5625 C 145.71875 154.597656 146.722656 154.765625 147.707031 155.066406 C 148.238281 155.175781 148.757812 155.332031 149.265625 155.53125 C 149.769531 155.734375 150.253906 155.980469 150.714844 156.269531 C 151.179688 156.558594 151.609375 156.886719 152.015625 157.25 C 152.417969 157.617188 152.785156 158.015625 153.117188 158.449219 C 153.449219 158.878906 153.738281 159.335938 153.988281 159.820312 C 154.238281 160.304688 154.441406 160.804688 154.601562 161.324219 C 154.761719 161.84375 154.871094 162.375 154.9375 162.914062 C 155 163.457031 155.015625 163.996094 154.984375 164.539062 C 154.984375 164.964844 154.984375 165.453125 154.984375 166.0625 C 154.722656 170.578125 148.96875 175.25 143.871094 171.375 C 143.691406 171.210938 143.558594 171.015625 143.46875 170.789062 C 143.378906 170.566406 143.339844 170.332031 143.355469 170.085938 C 143.371094 169.84375 143.4375 169.617188 143.558594 169.40625 C 143.675781 169.195312 143.835938 169.015625 144.035156 168.875 C 144.507812 168.539062 145 168.230469 145.511719 167.953125 C 145.753906 167.828125 145.976562 167.683594 146.183594 167.507812 C 146.390625 167.335938 146.574219 167.140625 146.738281 166.921875 C 146.898438 166.703125 147.03125 166.472656 147.136719 166.222656 C 147.246094 165.976562 147.320312 165.71875 147.367188 165.453125 C 147.414062 165.1875 147.429688 164.917969 147.414062 164.648438 C 147.394531 164.378906 147.347656 164.117188 147.269531 163.859375 C 147.191406 163.601562 147.085938 163.355469 146.949219 163.121094 C 146.8125 162.886719 146.652344 162.671875 146.464844 162.476562 C 146.304688 162.261719 146.121094 162.074219 145.914062 161.90625 C 145.707031 161.738281 145.480469 161.597656 145.238281 161.484375 C 144.996094 161.371094 144.746094 161.292969 144.484375 161.242188 C 144.222656 161.191406 143.957031 161.175781 143.691406 161.191406 C 143.421875 161.207031 143.164062 161.257812 142.90625 161.335938 C 142.652344 161.417969 142.414062 161.527344 142.1875 161.667969 C 141.960938 161.808594 141.753906 161.976562 141.566406 162.167969 C 141.382812 162.359375 141.222656 162.570312 141.089844 162.800781 C 140.1875 164.246094 139.769531 165.816406 139.835938 167.515625 C 139.851562 168.132812 139.929688 168.742188 140.078125 169.34375 C 140.226562 169.941406 140.4375 170.519531 140.710938 171.074219 C 140.984375 171.628906 141.316406 172.148438 141.707031 172.628906 C 142.09375 173.113281 142.53125 173.546875 143.015625 173.933594 C 143.496094 174.320312 144.015625 174.648438 144.574219 174.921875 C 145.128906 175.195312 145.710938 175.40625 146.3125 175.550781 C 146.914062 175.699219 147.523438 175.777344 148.144531 175.789062 C 148.765625 175.800781 149.378906 175.746094 149.984375 175.625 L 150.886719 175.476562 C 150.886719 175.476562 158.792969 174.089844 158.078125 162.539062 C 158.085938 162.117188 158.042969 161.703125 157.953125 161.289062 C 156.175781 154.277344 150.0625 148.992188 141.878906 150.128906 C 140.757812 150.25 139.664062 150.496094 138.597656 150.863281 C 137.53125 151.230469 136.515625 151.707031 135.558594 152.296875 C 134.597656 152.890625 133.714844 153.578125 132.910156 154.367188 C 132.101562 155.152344 131.390625 156.019531 130.78125 156.964844 C 129.988281 158.152344 129.328125 159.40625 128.800781 160.730469 C 128.273438 162.054688 127.894531 163.421875 127.65625 164.828125 C 127.417969 166.234375 127.332031 167.648438 127.390625 169.070312 C 127.453125 170.496094 127.664062 171.898438 128.023438 173.277344 C 130.179688 182.625 137.417969 188.214844 146.703125 188.863281 C 149.167969 189.023438 151.601562 188.804688 153.996094 188.210938 C 156.394531 187.613281 158.644531 186.667969 160.746094 185.375 C 164.683594 182.984375 168.21875 180.105469 171.355469 176.738281 C 174.492188 173.371094 177.109375 169.640625 179.214844 165.550781 L 179.601562 164.800781 C 179.464844 166.5625 179.300781 168.203125 179.1875 169.800781 C 178.914062 172.957031 179.238281 176.046875 180.167969 179.074219 C 181.292969 182.550781 183.375 185.175781 187.09375 186.175781 C 189.425781 186.714844 191.746094 186.679688 194.058594 186.074219 C 196.289062 185.5625 198.4375 184.8125 200.5 183.824219 L 199.382812 181.074219 C 198.457031 181.351562 197.605469 181.664062 196.714844 181.875 C 196.132812 182.074219 195.535156 182.195312 194.921875 182.242188 C 194.308594 182.285156 193.699219 182.253906 193.097656 182.144531 C 192.492188 182.035156 191.910156 181.851562 191.351562 181.59375 C 190.792969 181.339844 190.277344 181.015625 189.800781 180.625 C 188.453125 179.339844 187.585938 177.785156 187.195312 175.964844 C 186.210938 171.535156 186.128906 167.089844 186.945312 162.628906 C 187.523438 158.328125 188.480469 154.117188 189.8125 149.992188 C 190.890625 146.652344 192.09375 143.367188 193.183594 140.203125 C 195.476562 141.328125 197.605469 142.402344 199.75 143.441406 C 200.175781 143.652344 200.085938 143.890625 200 144.242188 C 199.246094 147.652344 198.40625 151.054688 197.792969 154.503906 C 196.945312 158.925781 196.945312 163.351562 197.792969 167.777344 C 198.066406 169.328125 198.480469 170.84375 199.035156 172.316406 C 199.59375 173.789062 200.285156 175.199219 201.109375 176.542969 C 201.933594 177.886719 202.878906 179.140625 203.941406 180.308594 C 205.003906 181.472656 206.164062 182.527344 207.429688 183.476562 C 209.03125 184.714844 210.753906 185.765625 212.59375 186.625 C 214.429688 187.488281 216.339844 188.136719 218.320312 188.574219 C 220.304688 189.011719 222.308594 189.226562 224.339844 189.222656 C 226.371094 189.214844 228.375 188.988281 230.355469 188.539062 C 231.8125 188.28125 233.226562 187.875 234.59375 187.320312 C 235.964844 186.765625 237.261719 186.074219 238.484375 185.242188 C 239.710938 184.414062 240.832031 183.464844 241.855469 182.398438 C 242.875 181.332031 243.773438 180.171875 244.550781 178.914062 C 245.945312 176.621094 246.921875 174.164062 247.476562 171.539062 C 248.035156 168.914062 248.140625 166.273438 247.792969 163.613281 Z M 192.667969 131.117188 C 192.445312 131.878906 192.15625 132.640625 191.84375 133.617188 C 189.097656 130.390625 186.769531 127.140625 186.332031 122.953125 C 186.253906 121.929688 186.421875 120.945312 186.832031 120.003906 C 187.054688 119.410156 187.417969 118.917969 187.925781 118.535156 C 188.433594 118.148438 189.007812 117.929688 189.640625 117.878906 C 190.277344 117.824219 190.878906 117.945312 191.441406 118.238281 C 192.007812 118.53125 192.449219 118.953125 192.769531 119.503906 C 193.523438 120.664062 193.910156 121.933594 193.933594 123.316406 C 193.976562 125.992188 193.5625 128.597656 192.695312 131.128906 Z M 192.667969 131.117188 "/>
</g>
</svg>
